<?xml version="1.0" encoding="iso-8859-1"?>
<!-- Generator: Adobe Illustrator 19.0.0, SVG Export Plug-In . SVG Version: 6.00 Build 0)  -->
<svg version="1.1" id="Capa_1" xmlns="http://www.w3.org/2000/svg" xmlns:xlink="http://www.w3.org/1999/xlink" x="0px" y="0px"
	 viewBox="0 0 512 512" style="enable-background:new 0 0 512 512;" xml:space="preserve">
<path style="fill:#E7E4CD;" d="M255.944,390.768c-27.242,0-49.404-22.163-49.404-49.405c0-27.242,22.163-49.404,49.404-49.404
	c27.242,0,49.405,22.163,49.405,49.404C305.349,368.606,283.186,390.768,255.944,390.768z"/>
<path style="fill:#A6C1AD;" d="M255.944,397.965c-31.209,0-56.601-25.391-56.601-56.602c0-31.209,25.391-56.601,56.601-56.601
	s56.602,25.391,56.602,56.602S287.155,397.965,255.944,397.965z M255.944,300.184c-22.706,0-41.179,18.473-41.179,41.179
	c0,22.706,18.473,41.18,41.179,41.18c22.707,0,41.18-18.473,41.18-41.18C297.124,318.656,278.651,300.184,255.944,300.184z"/>
<path style="fill:#81B776;" d="M298.032,376.247c-5.723,0-11.215-0.989-16.331-2.786c-7.059,5.676-16.015,9.083-25.756,9.083
	c-22.706,0-41.179-18.473-41.179-41.18c0-22.707,18.473-41.179,41.179-41.179c0.174,0,0.344,0.011,0.517,0.013
	c3.467-5.39,7.949-10.063,13.179-13.75c-4.388-1.095-8.974-1.685-13.697-1.685c-31.209,0-56.601,25.391-56.601,56.601
	c0,31.21,25.391,56.602,56.601,56.602c18.086,0,34.205-8.536,44.575-21.782C299.695,376.224,298.866,376.247,298.032,376.247z"/>
<path style="fill:#96401E;" d="M255.944,368.618c-15.028,0-27.254-12.226-27.254-27.254s12.226-27.254,27.254-27.254
	c15.028,0,27.254,12.226,27.254,27.254S270.973,368.618,255.944,368.618z"/>
<path style="fill:#5E2208;" d="M255.946,332.083c0-6.544,2.319-12.555,6.178-17.258c-1.986-0.463-4.053-0.715-6.178-0.715
	c-15.028,0-27.254,12.226-27.254,27.254s12.226,27.254,27.254,27.254c8.484,0,16.074-3.898,21.076-9.995
	C264.961,355.815,255.946,344.986,255.946,332.083z"/>
<path style="fill:#961E15;" d="M170.049,368.581V495.99c0,7.943-6.439,14.382-14.382,14.382h-40.252
	c-7.943,0-14.382-6.439-14.382-14.382V368.581c0-7.943,6.439-14.382,14.382-14.382h40.252
	C163.61,354.199,170.049,360.638,170.049,368.581z"/>
<path style="fill:#87100E;" d="M149.922,480.683c-7.943,0-14.382-6.439-14.382-14.382V354.199h-20.125
	c-7.943,0-14.382,6.439-14.382,14.382V495.99c0,7.943,6.439,14.382,14.382,14.382h40.252c7.943,0,14.382-6.439,14.382-14.382
	v-15.307h-20.126V480.683z"/>
<path style="fill:#68594E;" d="M498.419,469.91c0,0.788-0.068,1.581-0.204,2.361c-0.629,3.646-2.645,6.825-5.678,8.947
	c-3.026,2.121-6.703,2.932-10.347,2.277L31.709,402.621c-5.107-0.919-8.81-5.348-8.81-10.533c0-0.599,0.051-1.205,0.152-1.801
	c1.001-5.795,6.517-9.713,12.298-8.755l451.531,74.786c3.651,0.605,6.843,2.599,8.987,5.617
	C497.536,464.284,498.419,467.042,498.419,469.91L498.419,469.91z"/>
<path style="fill:#5B4A3F;" d="M492.537,481.217c2.425-1.697,4.186-4.078,5.122-6.826L23.16,389.805
	c-0.036,0.16-0.08,0.318-0.109,0.481c-0.102,0.596-0.152,1.202-0.152,1.801c0,5.185,3.704,9.615,8.81,10.533l450.481,80.873
	C485.835,484.148,489.511,483.338,492.537,481.217z"/>
<path style="fill:#68594E;" d="M497.34,388.791c0.265,0.741,0.47,1.511,0.606,2.291c0.638,3.644-0.187,7.317-2.326,10.339
	c-2.132,3.019-5.319,5.022-8.971,5.636l-451.34,75.928c-5.117,0.858-10.098-2.06-11.849-6.941c-0.203-0.564-0.359-1.151-0.465-1.747
	c-1.014-5.793,2.856-11.342,8.622-12.393l450.273-82.013c3.641-0.663,7.319,0.137,10.355,2.254
	C494.61,383.793,496.372,386.091,497.34,388.791L497.34,388.791z"/>
<path style="fill:#C69C6D;" d="M23.396,269.965C10.495,269.965,0,259.47,0,246.569V25.024C0,12.123,10.495,1.627,23.396,1.627
	h465.209C501.505,1.627,512,12.123,512,25.024v221.545c0,12.901-10.495,23.396-23.396,23.396H23.396z"/>
<path style="fill:#B78555;" d="M175.418,225.52c-40.169,0-72.734-32.563-72.734-72.734V1.627H23.396C10.474,1.627,0,12.103,0,25.024
	v221.545c0,12.921,10.474,23.396,23.396,23.396h465.209c12.921,0,23.396-10.474,23.396-23.396v-21.05L175.418,225.52L175.418,225.52
	z"/>
<path style="fill:#B2D84A;" d="M258.944,245.454c-1.905,0-3.797-0.13-5.626-0.385c-13.531-1.887-24.61-10.706-31.522-17.772
	c-2.719-2.779-3.97-6.591-3.43-10.458c0.539-3.866,2.784-7.191,6.159-9.12c7.066-4.039,17.929-8.855,29.559-8.855
	c1.904,0,3.795,0.129,5.623,0.385c13.533,1.887,24.611,10.707,31.522,17.773c2.718,2.779,3.969,6.59,3.431,10.456
	c-0.539,3.867-2.784,7.191-6.159,9.12c-7.065,4.04-17.928,8.856-29.555,8.856C258.946,245.454,258.946,245.454,258.944,245.454z"/>
<path style="fill:#E8BF4B;" d="M69.657,227.812c-15.59,0-28.273-12.683-28.273-28.273s12.683-28.273,28.273-28.273
	s28.273,12.683,28.273,28.273S85.247,227.812,69.657,227.812z"/>
<path style="fill:#F7D772;" d="M116.691,227.812c-15.59,0-28.273-12.683-28.273-28.273s12.683-28.273,28.273-28.273
	s28.273,12.683,28.273,28.273S132.281,227.812,116.691,227.812z"/>
<path style="fill:#B2D84A;" d="M412.038,241.566c-11.661,0-22.977-4.782-31.049-13.119l-3.427-3.54
	c-1.913-1.976-1.498-5.217,0.852-6.647l66.903-40.712c2.195-1.336,5.061-0.289,5.88,2.146l1.682,5.006
	c6.359,18.929-1.41,40.203-18.472,50.586C427.655,239.394,419.92,241.566,412.038,241.566L412.038,241.566z"/>
<path style="fill:#D3C3A5;" d="M31.725,132.41c6.667-19.142,6.533-40.157-0.379-59.172l-3.147-8.657
	c-1.637-4.502,3.337-8.535,7.404-6.003l55.443,34.518l-0.932,5.448c-0.261,1.526-0.388,2.95-0.388,4.352s0.127,2.827,0.388,4.354
	l0.932,5.447l-54.859,34.164c-4.038,2.515-8.993-1.447-7.428-5.939L31.725,132.41z"/>
<g>
	<path style="fill:#E2D9C5;" d="M149.79,154.386c-39.395-13.531-61.09-31.817-61.09-51.49s21.696-37.959,61.09-51.49l7.305-2.509
		c1.76-0.605,3.592,0.703,3.592,2.564v102.869c0,1.861-1.832,3.169-3.592,2.564L149.79,154.386z"/>
	<path style="fill:#E2D9C5;" d="M286.213,174.034c-10.29,0-20.67-0.291-30.851-0.865l-7.762-0.438V33.063l7.762-0.438
		c10.18-0.574,20.561-0.865,30.851-0.865c9.883,0,19.884,0.273,29.723,0.813c4.421,0.237,7.891,3.901,7.891,8.341v123.965
		c0,4.439-3.47,8.104-7.901,8.341C306.097,173.76,296.096,174.034,286.213,174.034z"/>
</g>
<path style="fill:#D6C6A5;" d="M247.6,102.72v70.01l7.762,0.438c10.18,0.574,20.561,0.865,30.851,0.865
	c9.883,0,19.884-0.273,29.712-0.813c4.431-0.237,7.901-3.902,7.901-8.341V102.72H247.6z"/>
<path style="fill:#CC4637;" d="M239.693,172.05c-11.124-0.964-22.07-2.285-32.536-3.927l-3.588-0.563
	c-1.935-0.303-3.361-1.971-3.361-3.929V42.164c0-1.959,1.426-3.626,3.361-3.929l3.588-0.563c10.465-1.642,21.411-2.963,32.536-3.927
	l8.934-0.774v139.854L239.693,172.05z"/>
<path style="fill:#C13127;" d="M200.208,102.72v60.909c0,1.959,1.426,3.626,3.362,3.929l3.588,0.563
	c10.465,1.642,21.411,2.963,32.536,3.927l8.934,0.774V102.72H200.208z"/>
<path style="fill:#E2D9C5;" d="M402.785,45.214l10.61,3.215c44.697,13.546,70.332,33.398,70.332,54.467
	s-25.636,40.921-70.332,54.467l-10.61,3.215V45.214z"/>
<path style="fill:#D6C6A5;" d="M483.72,102.72h-80.936v57.859l10.61-3.215c44.697-13.546,70.332-33.398,70.332-54.467
	C483.727,102.838,483.721,102.779,483.72,102.72z"/>
<path style="fill:#CC4637;" d="M355.393,39.721c0-1.885,1.682-3.325,3.544-3.034l5.949,0.928c11.397,1.779,22.386,3.96,32.664,6.485
	l6.263,1.538v114.515l-6.263,1.538c-10.277,2.525-21.268,4.707-32.664,6.485l-5.949,0.928c-1.862,0.291-3.544-1.149-3.544-3.034
	V39.721z"/>
<path style="fill:#C13127;" d="M355.393,102.72v63.352c0,1.885,1.682,3.325,3.544,3.034l5.949-0.928
	c11.397-1.779,22.386-3.96,32.664-6.485l6.263-1.538V102.72H355.393z"/>
<g>
	<path style="fill:#B5241A;" d="M403.813,62.266l-46.773-6.953c-0.558-0.083-1.107-0.087-1.648-0.05v15.396l46.772,6.952
		c0.385,0.058,0.766,0.085,1.143,0.085c0.17,0,0.336-0.017,0.504-0.029V62.266H403.813z"/>
	<path style="fill:#B5241A;" d="M248.628,52.972l-46.772-6.952c-0.557-0.083-1.108-0.101-1.648-0.065v15.411l46.772,6.952
		c0.385,0.058,0.766,0.085,1.143,0.085c0.171,0,0.336-0.028,0.505-0.039V52.972z"/>
	<path style="fill:#B5241A;" d="M248.628,82.709l-46.772-6.952c-0.557-0.083-1.108-0.101-1.648-0.065v15.41l46.772,6.952
		c0.385,0.058,0.766,0.085,1.143,0.085c0.171,0,0.336-0.028,0.505-0.039V82.709z"/>
</g>
<g>
	<path style="fill:#B2201D;" d="M248.628,112.445l-46.772-6.952c-0.557-0.083-1.108-0.101-1.648-0.065v15.41l46.772,6.952
		c0.385,0.058,0.766,0.085,1.143,0.085c0.171,0,0.336-0.028,0.505-0.039V112.445z"/>
	<path style="fill:#B2201D;" d="M248.628,142.18l-46.772-6.952c-0.557-0.083-1.108-0.101-1.648-0.064v15.41l46.772,6.952
		c0.385,0.058,0.766,0.085,1.143,0.085c0.171,0,0.336-0.028,0.505-0.039V142.18z"/>
</g>
<path style="fill:#B5241A;" d="M403.813,88.284l-46.772-6.952c-0.558-0.083-1.107-0.086-1.648-0.049v15.395l46.772,6.952
	c0.385,0.058,0.766,0.085,1.143,0.085c0.17,0,0.336-0.017,0.504-0.029V88.284H403.813z"/>
<g>
	<path style="fill:#B2201D;" d="M403.813,114.302l-46.772-6.952c-0.558-0.083-1.107-0.086-1.648-0.049v15.396l46.772,6.952
		c0.385,0.058,0.766,0.085,1.143,0.085c0.17,0,0.336-0.017,0.504-0.029v-15.403H403.813z"/>
	<path style="fill:#B2201D;" d="M403.813,140.321l-46.772-6.952c-0.558-0.083-1.107-0.087-1.648-0.05v15.396l46.772,6.952
		c0.385,0.058,0.766,0.085,1.143,0.085c0.17,0,0.336-0.017,0.504-0.029v-15.402H403.813z"/>
</g>
<circle style="fill:#ADA189;" cx="433.966" cy="79.668" r="8.827"/>
<path style="fill:#89AD07;" d="M420.591,192.595l-17.439,10.611l-8.45,34.715c4.72,2.059,9.805,3.292,15.001,3.576l5.681-23.342
	l12.407,20.39c2.281-0.9,4.501-1.972,6.615-3.258c2.345-1.427,4.508-3.067,6.49-4.871l-12.147-19.962l22.558,5.49
	c2.093-4.718,3.358-9.794,3.688-14.973L420.591,192.595z"/>
<path style="fill:#5B4A3F;" d="M427.378,448.422l-4.13,24.491l15.18,2.726l4.158-24.652c0.114-0.675,0.128-1.343,0.067-1.993
	l-14.702-2.436C427.69,447.142,427.489,447.762,427.378,448.422z"/>
<path style="fill:#CEB895;" d="M36.627,102.72c0.071,10.042-1.561,20.101-4.901,29.69l-2.965,8.514
	c-1.565,4.492,3.39,8.454,7.428,5.939l54.859-34.164l-0.932-5.447c-0.261-1.527-0.388-2.952-0.388-4.354
	c0-0.059,0.007-0.118,0.008-0.177H36.627V102.72z"/>
<path style="fill:#D6C6A5;" d="M88.705,102.72c0,0.059-0.006,0.118-0.006,0.177c0,19.673,21.696,37.959,61.09,51.49l7.305,2.509
	c1.76,0.605,3.592-0.703,3.592-2.564V102.72C160.686,102.72,88.705,102.72,88.705,102.72z"/>
<g>
	<path style="fill:#5B4A3F;" d="M23.46,476.044c1.75,4.88,6.732,7.8,11.849,6.941l451.34-75.928
		c3.651-0.614,6.839-2.618,8.971-5.636c2.138-3.022,2.963-6.694,2.325-10.339c-0.136-0.779-0.339-1.549-0.606-2.291c0,0,0,0,0-0.001
		c-0.079-0.222-0.173-0.437-0.263-0.653L23.366,475.741C23.399,475.84,23.425,475.944,23.46,476.044z"/>
	<path style="fill:#5B4A3F;" d="M438.287,391.454c-0.213-1.264-0.727-2.4-1.449-3.357l-13.546,2.467
		c-0.321,1.088-0.413,2.26-0.213,3.453l3.892,23.078l15.208-2.559L438.287,391.454z"/>
</g>
<g>
</g>
<g>
</g>
<g>
</g>
<g>
</g>
<g>
</g>
<g>
</g>
<g>
</g>
<g>
</g>
<g>
</g>
<g>
</g>
<g>
</g>
<g>
</g>
<g>
</g>
<g>
</g>
<g>
</g>
</svg>
