<svg xmlns="http://www.w3.org/2000/svg" xmlns:xlink="http://www.w3.org/1999/xlink" viewBox="0 0 1125 2436"><defs><linearGradient id="linear-gradient" x1="1588.64" y1="2213.52" x2="663.3" y2="1400.51" gradientUnits="userSpaceOnUse"><stop offset="0.12" stop-color="#fda82c"/><stop offset="0.49" stop-color="#f3870d"/><stop offset="0.62" stop-color="#ef7a02"/></linearGradient><linearGradient id="linear-gradient-2" x1="249.76" y1="812.99" x2="912.3" y2="1570.45" gradientTransform="translate(-18.53 17.22)" xlink:href="#linear-gradient"/><linearGradient id="linear-gradient-3" x1="824.17" y1="1322.61" x2="852.73" y2="1344.99" xlink:href="#linear-gradient"/></defs><g id="Layer_2" data-name="Layer 2"><g id="Layer_8" data-name="Layer 8"><rect width="1125" height="2436" style="fill:#fff"/></g><g id="Layer_7" data-name="Layer 7"><polygon points="1125 1109 925.47 859.56 194.58 1552.54 964 2436 1125 2436 1125 1109" style="fill:url(#linear-gradient)"/></g><g id="Layer_5" data-name="Layer 5"><rect x="177.28" y="823.72" width="770.44" height="770.44" rx="120.38" style="fill:#fff;stroke-miterlimit:10;stroke-width:18.157129010384722px;stroke:url(#linear-gradient-2)"/></g><g id="Layer_2-2" data-name="Layer 2"><path d="M483.58,1138.51s11.84-78.22,55.24-127.94" style="fill:none;stroke:#000;stroke-linecap:square;stroke-miterlimit:10;stroke-width:23.67312437890007px"/><path d="M564.07,981.38s69.08,65.1,76.54,156.24" style="fill:none;stroke:#000;stroke-linecap:square;stroke-miterlimit:10;stroke-width:23.67312437890007px"/><line x1="684.8" y1="981.35" x2="684.8" y2="1137.62" style="fill:none;stroke:#000;stroke-linecap:square;stroke-linejoin:round;stroke-width:23.67312437890007px"/><line x1="841.83" y1="981.35" x2="841.83" y2="1137.62" style="fill:none;stroke:#000;stroke-linecap:square;stroke-linejoin:round;stroke-width:23.67312437890007px"/><line x1="685.92" y1="1058.7" x2="841.83" y2="1058.7" style="fill:none;stroke:#000;stroke-linecap:square;stroke-linejoin:round;stroke-width:23.67312437890007px"/><path d="M282.75,1182.2H437.81s11.44,158.22-155.06,158.22" style="fill:none;stroke:#000;stroke-linecap:square;stroke-miterlimit:10;stroke-width:23.67312437890007px"/><path d="M685,1182H840.06S851.5,1340.22,685,1340.22" style="fill:none;stroke:#000;stroke-linecap:square;stroke-miterlimit:10;stroke-width:23.67312437890007px"/><path d="M830.78,1345.94a18.15,18.15,0,1,1,18.15-18.15A18.17,18.17,0,0,1,830.78,1345.94Z" style="fill:url(#linear-gradient-3)"/><path d="M830.78,1314.38a13.42,13.42,0,1,1-13.41,13.41,13.43,13.43,0,0,1,13.41-13.41m0-9.47a22.89,22.89,0,1,0,22.89,22.88,22.89,22.89,0,0,0-22.89-22.88Z"/><path d="M483.91,1340.4V1181.79s156.24-10.27,156.24,73.38C640.15,1350.66,483.91,1340.4,483.91,1340.4Z" style="fill:none;stroke:#000;stroke-linecap:square;stroke-miterlimit:10;stroke-width:23.67312437890007px"/><polyline points="438.14 1136.81 282.69 1136.81 282.69 981.35 438.14 981.35 438.14 1136.81" style="fill:none;stroke:#000;stroke-linecap:square;stroke-miterlimit:10;stroke-width:23.67312437890007px"/><line x1="270.06" y1="1377.48" x2="854" y2="1377.48" style="fill:none;stroke:#000;stroke-linejoin:round;stroke-width:9.469249751560028px"/><text transform="translate(267 1445.52)" style="font-size:31.564165115356445px;font-family:S-CoreDream-3Light, S-Core Dream;font-weight:300"><tspan style="letter-spacing:2.5599979889674804em">미식한</tspan><tspan x="333.32" y="0" style="font-family:S-CoreDream-5Medium, S-Core Dream;font-weight:500;letter-spacing:2.5599825194865606em">고독</tspan><tspan x="555.53" y="0" style="font-family:S-CoreDream-5Medium, S-Core Dream;font-weight:500">가</tspan></text></g></g></svg>