<?xml version="1.0" encoding="iso-8859-1"?>
<!-- Generator: Adobe Illustrator 19.0.0, SVG Export Plug-In . SVG Version: 6.00 Build 0)  -->
<svg version="1.1" id="Capa_1" xmlns="http://www.w3.org/2000/svg" xmlns:xlink="http://www.w3.org/1999/xlink" x="0px" y="0px"
	 viewBox="0 0 409.6 409.6" style="enable-background:new 0 0 409.6 409.6;" xml:space="preserve">
<rect x="56.73" style="fill:#D5D6DB;" width="216.883" height="145.28"/>
<path style="fill:#E1E6E9;" d="M273.273,100.621v44.657h-56.341v-44.657c0-15.606,12.564-28.171,28.171-28.171
	C260.63,72.45,273.273,85.015,273.273,100.621z"/>
<path style="fill:#EBF0F3;" d="M216.906,100.613c0-15.568,12.62-28.188,28.188-28.188H28.188C12.62,72.425,0,85.045,0,100.613
	v223.231l11.285,11.284l13.98-13.979l13.98,13.979l13.98-13.979l13.98,13.979l13.98-13.979l13.98,13.979l13.98-13.979l13.98,13.979
	l13.98-13.979l13.98,13.979l13.98-13.979l13.98,13.979l13.98-13.979l13.98,13.979l9.902-9.902V100.613z"/>
<path style="fill:#E56353;" d="M38.604,169.029v-6.524c-8.167-0.833-15.498-4.08-21.985-9.738l6.524-7.775
	c5.004,4.349,10.153,6.938,15.462,7.775v-17.338c-6.735-1.607-11.665-3.724-14.793-6.345c-3.127-2.622-4.691-6.509-4.691-11.662
	c0-5.153,1.796-9.367,5.404-12.647c3.607-3.276,8.298-5.062,14.08-5.36v-4.469h5.716v4.556c6.553,0.48,12.749,2.713,18.589,6.705
	l-5.811,8.222c-3.935-2.8-8.189-4.527-12.778-5.185v16.8h0.269c6.851,1.611,11.884,3.785,15.098,6.524
	c3.222,2.742,4.829,6.72,4.829,11.931c0,5.215-1.847,9.462-5.542,12.735c-3.695,3.28-8.575,5.065-14.655,5.364v6.433H38.604z
	 M32.299,111.345c-1.52,1.338-2.276,3.007-2.276,5.004c0,1.996,0.596,3.575,1.789,4.735c1.185,1.164,3.455,2.28,6.793,3.353v-15.462
	C35.921,109.214,33.819,110.003,32.299,111.345z M51.113,150.531c1.665-1.367,2.502-3.095,2.502-5.182
	c0-2.084-0.655-3.738-1.964-4.96c-1.316-1.222-3.76-2.367-7.331-3.44v16.084C47.179,152.738,49.441,151.902,51.113,150.531z"/>
<g>
	<rect x="88.694" y="102.374" style="fill:#D5D6DB;" width="104.699" height="7.45"/>
	<rect x="88.694" y="138.291" style="fill:#D5D6DB;" width="104.699" height="7.45"/>
	<rect x="16.62" y="174.182" style="fill:#D5D6DB;" width="176.773" height="7.45"/>
	<rect x="16.62" y="210.125" style="fill:#D5D6DB;" width="176.773" height="7.45"/>
	<rect x="16.62" y="246.016" style="fill:#D5D6DB;" width="176.773" height="7.45"/>
	<rect x="16.62" y="281.907" style="fill:#D5D6DB;" width="176.773" height="7.45"/>
</g>
<path style="fill:#64798A;" d="M401.174,143.585L231.068,80.56c-6.683-2.476-14.109,0.935-16.586,7.619L125.19,329.181
	c-2.476,6.684,0.934,14.11,7.618,16.586l170.106,63.025c6.684,2.476,14.11-0.935,16.586-7.618l89.293-241.003
	C411.269,153.487,407.858,146.061,401.174,143.585z"/>
<rect x="266.157" y="81.109" transform="matrix(-0.3474 0.9377 -0.9377 -0.3474 553.092 -60.1503)" style="fill:#27A2DB;" width="62.638" height="162.54"/>
<rect x="282.767" y="104.932" transform="matrix(-0.3474 0.9377 -0.9377 -0.3474 563.5422 -19.7768)" style="fill:#2D93BA;" width="11.771" height="162.54"/>
<g>
	<ellipse style="fill:#EBF0F3;" cx="207.793" cy="209.024" rx="13.368" ry="13.368"/>
	<ellipse style="fill:#EBF0F3;" cx="250.237" cy="224.761" rx="13.368" ry="13.368"/>
	<ellipse style="fill:#EBF0F3;" cx="292.679" cy="240.516" rx="13.368" ry="13.368"/>
</g>
<ellipse style="fill:#FCD462;" cx="335.141" cy="256.205" rx="13.368" ry="13.368"/>
<g>
	<ellipse style="fill:#EBF0F3;" cx="193.913" cy="246.437" rx="13.368" ry="13.368"/>
	<ellipse style="fill:#EBF0F3;" cx="236.403" cy="262.17" rx="13.368" ry="13.368"/>
	<ellipse style="fill:#EBF0F3;" cx="278.842" cy="277.903" rx="13.368" ry="13.368"/>
</g>
<ellipse style="fill:#44C4A1;" cx="321.282" cy="293.637" rx="13.368" ry="13.368"/>
<g>
	<ellipse style="fill:#EBF0F3;" cx="180.056" cy="283.85" rx="13.368" ry="13.368"/>
	<ellipse style="fill:#EBF0F3;" cx="222.495" cy="299.584" rx="13.368" ry="13.368"/>
	<ellipse style="fill:#EBF0F3;" cx="264.981" cy="315.34" rx="13.368" ry="13.368"/>
	<ellipse style="fill:#EBF0F3;" cx="166.197" cy="321.282" rx="13.368" ry="13.368"/>
	<ellipse style="fill:#EBF0F3;" cx="208.633" cy="337.011" rx="13.368" ry="13.368"/>
	<ellipse style="fill:#EBF0F3;" cx="251.09" cy="352.756" rx="13.368" ry="13.368"/>
</g>
<path style="fill:#E56353;" d="M321.909,322.161l-19.724-7.308c-1.478-0.548-3.119,0.206-3.666,1.683l-21.173,57.145
	c-0.547,1.477,0.206,3.118,1.684,3.665l19.724,7.308c1.477,0.547,3.119-0.206,3.666-1.683l21.173-57.145
	C324.14,324.349,323.386,322.708,321.909,322.161z"/>
<g>
</g>
<g>
</g>
<g>
</g>
<g>
</g>
<g>
</g>
<g>
</g>
<g>
</g>
<g>
</g>
<g>
</g>
<g>
</g>
<g>
</g>
<g>
</g>
<g>
</g>
<g>
</g>
<g>
</g>
</svg>
