<?xml version="1.0" encoding="iso-8859-1"?>
<!-- Generator: Adobe Illustrator 19.0.0, SVG Export Plug-In . SVG Version: 6.00 Build 0)  -->
<svg version="1.1" id="Capa_1" xmlns="http://www.w3.org/2000/svg" xmlns:xlink="http://www.w3.org/1999/xlink" x="0px" y="0px"
	 viewBox="0 0 512 512" style="enable-background:new 0 0 512 512;" xml:space="preserve">
<path style="fill:#656D78;" d="M405.996,0H46.002c-20.678,0-37.5,16.822-37.5,37.5v39.99c0,20.678,16.822,37.5,37.5,37.5h359.994
	c20.678,0,37.5-16.822,37.5-37.5V37.5C443.496,16.822,426.674,0,405.996,0z"/>
<g>
	<path style="fill:#515760;" d="M405.996,0h-30.002c20.678,0,37.5,16.822,37.5,37.5v39.99c0,20.678-16.822,37.5-37.5,37.5h30.002
		c20.678,0,37.5-16.822,37.5-37.5V37.5C443.496,16.822,426.674,0,405.996,0z"/>
	<path style="fill:#515760;" d="M395.998,64.999H56.002c-4.143,0-7.5-3.358-7.5-7.5s3.357-7.5,7.5-7.5h339.996
		c4.143,0,7.5,3.358,7.5,7.5S400.141,64.999,395.998,64.999z"/>
</g>
<g>
	<path style="fill:#E6E9ED;" d="M420.998,510.252h2.42c0.5,0,0.73-0.05,0.756-0.144
		C423.125,510.196,422.068,510.252,420.998,510.252z"/>
	<path style="fill:#E6E9ED;" d="M383.498,478.153c0-2.219,0-5.402,0-5.402v-0.001v-22.498V64.999c0-4.141-3.355-7.497-7.496-7.499
		v-0.001H75.998c-4.143,0-7.5,3.358-7.5,7.5c0,0,0,413.807,0,415.253c0,16.568,13.432,30,30,30h285v-30
		C383.498,480.252,383.498,479.337,383.498,478.153z"/>
	<path style="fill:#E6E9ED;" d="M383.498,482L383.498,482V66.748c0-4.141-3.355-7.497-7.496-7.5l0,0H75.998
		c-4.143,0-7.5,3.358-7.5,7.5c0,0,0,413.807,0,415.252c0,16.568,13.432,30,30,30h315C396.93,512,383.498,498.568,383.498,482z"/>
</g>
<path style="fill:#DADDE1;" d="M383.498,480.252L383.498,480.252V64.999c0-4.141-3.355-7.497-7.496-7.499v-0.001H346V57.5
	c4.141,0.002,7.494,3.359,7.494,7.499v415.253h0.002c0,16.568,13.432,30,30,30h30.002
	C396.93,510.252,383.498,496.82,383.498,480.252z"/>
<path style="fill:#CCD1D9;" d="M443.498,290.252h-15.496h-44.504v190l0,0c0,16.568,13.432,30,30,30s30-13.432,30-30v-160
	c0-16.568,13.432-30,30-30H443.498z"/>
<path style="fill:#AAB2BC;" d="M473.498,290.252c-16.568,0-30,13.432-30,30v90.007h52.5c4.143,0,7.5-3.357,7.5-7.499l0,0v-82.509
	C503.498,303.684,490.066,290.252,473.498,290.252z"/>
<path style="fill:#48CFAD;" d="M291.568,245.02c0.076-0.084,0.156-0.166,0.229-0.253c0.063-0.075,0.115-0.155,0.174-0.232
	c0.088-0.115,0.178-0.228,0.258-0.348c0.041-0.061,0.076-0.126,0.115-0.188c0.09-0.142,0.18-0.283,0.26-0.431
	c0.031-0.059,0.057-0.122,0.088-0.182c0.078-0.155,0.156-0.31,0.225-0.47c0.047-0.11,0.082-0.225,0.123-0.338
	c0.043-0.114,0.09-0.227,0.125-0.344c0.221-0.705,0.336-1.452,0.336-2.221c0,0,0-0.002,0-0.003c0-0.1-0.01-0.197-0.014-0.295
	c-0.008-0.15-0.008-0.299-0.023-0.451v-0.011c-0.002-0.006-0.002-0.013-0.002-0.019l-9.998-99.973c0-0.002,0-0.003,0-0.005
	c-0.076-0.764-0.268-1.495-0.555-2.174c-0.053-0.126-0.117-0.246-0.178-0.368c-0.047-0.095-0.088-0.193-0.139-0.286
	c-0.086-0.158-0.182-0.31-0.279-0.46c-0.033-0.052-0.063-0.106-0.096-0.157c-0.096-0.143-0.203-0.277-0.309-0.412
	c-0.043-0.055-0.082-0.113-0.125-0.167c-0.096-0.116-0.201-0.224-0.303-0.334c-0.063-0.066-0.121-0.137-0.186-0.201
	c-0.09-0.089-0.185-0.17-0.279-0.254c-0.086-0.077-0.168-0.158-0.256-0.231c-0.08-0.065-0.166-0.124-0.248-0.186
	c-0.111-0.083-0.219-0.169-0.332-0.246c-0.076-0.05-0.156-0.093-0.232-0.141c-0.127-0.079-0.254-0.161-0.387-0.232
	c-0.09-0.049-0.188-0.09-0.281-0.136c-0.123-0.06-0.242-0.124-0.369-0.177c-0.189-0.08-0.383-0.147-0.58-0.212
	c-0.033-0.011-0.066-0.026-0.102-0.037c-0.707-0.221-1.455-0.338-2.226-0.337H276H176c-0.002,0-0.002,0-0.004,0
	c-0.771-0.001-1.52,0.117-2.227,0.337c-0.021,0.007-0.041,0.016-0.063,0.023c-0.211,0.067-0.418,0.142-0.619,0.227
	c-0.092,0.039-0.176,0.085-0.266,0.127c-0.129,0.061-0.262,0.119-0.387,0.187c-0.096,0.051-0.184,0.111-0.275,0.165
	c-0.115,0.069-0.232,0.134-0.344,0.209c-0.076,0.05-0.145,0.108-0.217,0.161c-0.123,0.089-0.248,0.176-0.365,0.272
	c-0.047,0.039-0.09,0.083-0.137,0.124c-0.137,0.118-0.271,0.235-0.398,0.362c-0.023,0.024-0.045,0.051-0.068,0.075
	c-0.145,0.148-0.287,0.3-0.418,0.46c-0.006,0.005-0.01,0.011-0.014,0.017c-0.299,0.365-0.566,0.758-0.795,1.178
	c-0.008,0.014-0.014,0.03-0.021,0.044c-0.105,0.198-0.205,0.4-0.293,0.609c-0.287,0.678-0.477,1.408-0.553,2.171
	c0,0.002,0,0.003,0,0.005l-9.998,99.973c0,0.006,0,0.013-0.002,0.019v0.011c-0.016,0.151-0.018,0.301-0.023,0.451
	c-0.004,0.099-0.014,0.196-0.014,0.295c0,0.001,0,0.002,0,0.002c0,0.77,0.115,1.517,0.336,2.222
	c0.033,0.112,0.078,0.218,0.119,0.327c0.043,0.119,0.08,0.239,0.129,0.355c0.066,0.159,0.145,0.311,0.223,0.464
	c0.031,0.062,0.057,0.127,0.09,0.188c0.08,0.148,0.17,0.289,0.26,0.431c0.039,0.063,0.074,0.127,0.115,0.188
	c0.08,0.12,0.17,0.233,0.258,0.348c0.059,0.077,0.111,0.158,0.174,0.232c0.072,0.088,0.152,0.169,0.229,0.253
	c0.084,0.095,0.168,0.193,0.258,0.284c0.057,0.057,0.119,0.108,0.178,0.163c0.117,0.11,0.232,0.222,0.357,0.324
	c0.043,0.035,0.088,0.065,0.131,0.1c0.146,0.115,0.293,0.229,0.447,0.334c0.039,0.026,0.082,0.048,0.121,0.074
	c0.162,0.106,0.326,0.209,0.498,0.302c0.063,0.035,0.131,0.063,0.197,0.096c0.15,0.076,0.299,0.154,0.455,0.22
	c0.68,0.288,1.41,0.478,2.174,0.554c0.002,0,0.004,0.001,0.006,0.001c0.254,0.025,0.504,0.038,0.754,0.038c0.004,0,0.008,0,0.01,0
	H285.98c0.004,0,0.008,0,0.012,0c0.248,0,0.502-0.012,0.754-0.038c0.002,0,0.004-0.001,0.006-0.001
	c0.764-0.076,1.494-0.266,2.174-0.554c0.154-0.065,0.303-0.143,0.451-0.218c0.066-0.034,0.137-0.062,0.201-0.098
	c0.172-0.093,0.336-0.196,0.498-0.302c0.039-0.026,0.082-0.048,0.121-0.074c0.154-0.105,0.301-0.219,0.445-0.334
	c0.045-0.034,0.09-0.064,0.133-0.1c0.125-0.102,0.24-0.214,0.357-0.324c0.059-0.055,0.121-0.106,0.178-0.163
	C291.4,245.213,291.482,245.115,291.568,245.02z"/>
<path style="fill:#656D78;" d="M226,92.503c-15.162,0-27.5,12.337-27.5,27.5v30.003c0,4.142,3.357,7.5,7.5,7.5s7.5-3.358,7.5-7.5
	v-30.003c0-6.893,5.607-12.5,12.5-12.5s12.5,5.607,12.5,12.5v30.003c0,4.142,3.357,7.5,7.5,7.5s7.5-3.358,7.5-7.5v-30.003
	C253.5,104.839,241.164,92.503,226,92.503z"/>
<path style="fill:#CCD1D9;" d="M336.002,299.252H116c-4.143,0-7.5-3.358-7.5-7.5s3.357-7.5,7.5-7.5h220.002
	c4.142,0,7.5,3.358,7.5,7.5C343.502,295.895,340.145,299.252,336.002,299.252z"/>
<path style="fill:#656D78;" d="M226.002,349.253h-110c-4.143,0-7.5-3.358-7.5-7.5s3.357-7.5,7.5-7.5h110c4.143,0,7.5,3.358,7.5,7.5
	S230.145,349.253,226.002,349.253z"/>
<path style="fill:#ED5565;" d="M336.002,349.253h-20c-4.143,0-7.5-3.358-7.5-7.5s3.357-7.5,7.5-7.5h20c4.142,0,7.5,3.358,7.5,7.5
	S340.145,349.253,336.002,349.253z"/>
<path style="fill:#656D78;" d="M185.998,399.254h-69.996c-4.143,0-7.5-3.358-7.5-7.5s3.357-7.5,7.5-7.5h69.996
	c4.143,0,7.5,3.358,7.5,7.5C193.498,395.897,190.141,399.254,185.998,399.254z"/>
<path style="fill:#ED5565;" d="M336.002,399.254h-20c-4.143,0-7.5-3.358-7.5-7.5s3.357-7.5,7.5-7.5h20c4.142,0,7.5,3.358,7.5,7.5
	C343.502,395.897,340.145,399.254,336.002,399.254z"/>
<path style="fill:#656D78;" d="M246.004,449.255H116.002c-4.143,0-7.5-3.358-7.5-7.5s3.357-7.5,7.5-7.5h130.002
	c4.143,0,7.5,3.358,7.5,7.5C253.504,445.898,250.146,449.255,246.004,449.255z"/>
<path style="fill:#ED5565;" d="M336.002,449.255h-20c-4.143,0-7.5-3.358-7.5-7.5s3.357-7.5,7.5-7.5h20c4.142,0,7.5,3.358,7.5,7.5
	C343.502,445.898,340.145,449.255,336.002,449.255z"/>
<g>
</g>
<g>
</g>
<g>
</g>
<g>
</g>
<g>
</g>
<g>
</g>
<g>
</g>
<g>
</g>
<g>
</g>
<g>
</g>
<g>
</g>
<g>
</g>
<g>
</g>
<g>
</g>
<g>
</g>
</svg>
