<svg id="Layer_1" enable-background="new 0 0 512 512" height="512" viewBox="0 0 512 512" width="512" xmlns="http://www.w3.org/2000/svg"><g><g><path d="m256 432c0-17.673-14.327-32-32-32h-176c-17.673 0-32-14.327-32-32v-256c0-17.673 14.327-32 32-32h176c17.673 0 32 14.327 32 32z" fill="#6478b9"/></g><g><path d="m256 432c0-17.673 14.327-32 32-32h144l64-64v-224c0-17.673-14.327-32-32-32h-176c-17.673 0-32 14.327-32 32z" fill="#4b55a5"/></g><g><g><path d="m136 208h-24c-4.418 0-8-3.582-8-8v-64h32z" fill="#d7e6e6"/></g><g><path d="m160 208h-24v-72h32v64c0 4.418-3.582 8-8 8z" fill="#aac3d7"/></g><g><path d="m168 112c-6.553 0-12.352 3.166-16 8.036-3.648-4.87-9.447-8.036-16-8.036s-12.352 3.166-16 8.036c-3.648-4.87-9.447-8.036-16-8.036-11.046 0-20 8.954-20 20s8.954 20 20 20c6.553 0 12.352-3.166 16-8.036 3.648 4.87 9.447 8.036 16 8.036s12.352-3.166 16-8.036c3.648 4.87 9.447 8.036 16 8.036 11.046 0 20-8.954 20-20s-8.954-20-20-20z" fill="#d7e6e6"/></g></g><g><g><path d="m64 288c-8.837 0-16-7.163-16-16 0-8.837 7.163-16 16-16 8.837 0 16 7.163 16 16 0 8.837-7.163 16-16 16z" fill="#4b55a5"/></g><g><path d="m208 288h-96c-8.837 0-16-7.163-16-16 0-8.837 7.163-16 16-16h96c8.837 0 16 7.163 16 16 0 8.837-7.163 16-16 16z" fill="#4b55a5"/></g></g><g><g><path d="m64 352c-8.837 0-16-7.163-16-16 0-8.837 7.163-16 16-16 8.837 0 16 7.163 16 16 0 8.837-7.163 16-16 16z" fill="#4b55a5"/></g><g><path d="m208 352h-96c-8.837 0-16-7.163-16-16 0-8.837 7.163-16 16-16h96c8.837 0 16 7.163 16 16 0 8.837-7.163 16-16 16z" fill="#4b55a5"/></g></g><g><path d="m432 400 64-64h-32c-17.673 0-32 14.327-32 32z" fill="#6478b9"/></g><g><circle cx="378.667" cy="256" fill="#d7e6e6" r="56"/></g><g><circle cx="378.667" cy="256" fill="#aac3d7" r="40"/></g><g><g><path d="m456 272h16v-64c0-4.418-3.582-8-8-8-8.837 0-16 7.163-16 16v48c0 4.418 3.582 8 8 8z" fill="#aac3d7"/></g><g><path d="m456 272h16v32c0 4.418-3.582 8-8 8-4.418 0-8-3.582-8-8z" fill="#96aab9"/></g></g><g><path d="m312 204c-2.209 0-4 1.791-4 4v13.333h-8v-13.333c0-2.209-1.791-4-4-4s-4 1.791-4 4v13.333h-8v-13.333c0-2.209-1.791-4-4-4s-4 1.791-4 4v24c0 6.617 5.383 12 12 12h4v28c0 2.209 1.791 4 4 4s4-1.791 4-4v-28h4c6.617 0 12-5.383 12-12v-24c0-2.209-1.791-4-4-4z" fill="#aac3d7"/><g><path d="m296 312c-4.418 0-8-3.582-8-8v-32c0-4.418 3.582-8 8-8 4.418 0 8 3.582 8 8v32c0 4.418-3.582 8-8 8z" fill="#96aab9"/></g></g><g><g><path d="m321.406 141.396 4.513 9.144 10.09 1.466c2.461.358 3.443 3.381 1.663 5.117l-7.302 7.117 1.724 10.05c.42 2.451-2.152 4.32-4.353 3.163l-9.025-4.745-9.025 4.745c-2.201 1.157-4.773-.712-4.353-3.163l1.724-10.05-7.302-7.117c-1.781-1.736-.798-4.76 1.663-5.117l10.09-1.466 4.513-9.144c1.1-2.23 4.28-2.23 5.38 0z" fill="#f5871e"/></g><g><path d="m381.357 141.396 4.513 9.144 10.09 1.466c2.461.358 3.443 3.381 1.663 5.117l-7.302 7.117 1.724 10.05c.42 2.451-2.152 4.32-4.353 3.163l-9.025-4.745-9.025 4.745c-2.201 1.157-4.773-.712-4.353-3.163l1.724-10.05-7.302-7.117c-1.781-1.736-.798-4.76 1.663-5.117l10.09-1.466 4.513-9.144c1.1-2.23 4.279-2.23 5.38 0z" fill="#f5871e"/></g><g><path d="m441.308 141.396 4.513 9.144 10.09 1.466c2.461.358 3.443 3.381 1.663 5.117l-7.302 7.117 1.724 10.05c.42 2.451-2.152 4.32-4.353 3.163l-9.025-4.745-9.025 4.745c-2.201 1.157-4.773-.712-4.353-3.163l1.724-10.05-7.302-7.117c-1.781-1.736-.798-4.76 1.663-5.117l10.09-1.466 4.513-9.144c1.1-2.23 4.279-2.23 5.38 0z" fill="#f5871e"/></g></g><g><path d="m368.457 278.438c-1.536 0-3.071-.586-4.243-1.757l-16.457-16.457c-2.343-2.343-2.343-6.142 0-8.485s6.143-2.343 8.485 0l12.214 12.214 27.3-27.3c2.343-2.343 6.142-2.343 8.485 0s2.343 6.142 0 8.485l-31.541 31.543c-1.172 1.171-2.708 1.757-4.243 1.757z" fill="#69a041"/></g></g></svg>